<svg width="92" height="94" viewBox="0 0 92 94" fill="none" xmlns="http://www.w3.org/2000/svg">
<mask id="mask0_1_745" style="mask-type:luminance" maskUnits="userSpaceOnUse" x="14" y="58" width="12" height="23">
<path d="M14 58.9698H26V80.9698H14V58.9698Z" fill="white"/>
</mask>
<g mask="url(#mask0_1_745)">
<path fill-rule="evenodd" clip-rule="evenodd" d="M26 58.9698C32.075 58.9698 37 63.8948 37 69.9698C37 76.0448 32.075 80.9698 26 80.9698C19.925 80.9698 15 76.0448 15 69.9698C15 63.8948 19.925 58.9698 26 58.9698ZM26 65.9698C24.9391 65.9698 23.9217 66.3913 23.1716 67.1414C22.4214 67.8916 22 68.909 22 69.9698C22 71.0307 22.4214 72.0481 23.1716 72.7983C23.9217 73.5484 24.9391 73.9698 26 73.9698C27.0609 73.9698 28.0783 73.5484 28.8284 72.7983C29.5786 72.0481 30 71.0307 30 69.9698C30 68.909 29.5786 67.8916 28.8284 67.1414C28.0783 66.3913 27.0609 65.9698 26 65.9698Z" fill="white"/>
</g>
<mask id="mask1_1_745" style="mask-type:luminance" maskUnits="userSpaceOnUse" x="66" y="58" width="15" height="23">
<path d="M66 58.9698H81V80.9698H66V58.9698Z" fill="white"/>
</mask>
<g mask="url(#mask1_1_745)">
<path fill-rule="evenodd" clip-rule="evenodd" d="M66 55.9698C73.732 55.9698 80 62.2378 80 69.9698C80 77.7018 73.732 83.9698 66 83.9698C58.268 83.9698 52 77.7018 52 69.9698C52 62.2378 58.268 55.9698 66 55.9698ZM66 65.9698C64.9391 65.9698 63.9217 66.3913 63.1716 67.1414C62.4214 67.8916 62 68.909 62 69.9698C62 71.0307 62.4214 72.0481 63.1716 72.7983C63.9217 73.5484 64.9391 73.9698 66 73.9698C67.0609 73.9698 68.0783 73.5484 68.8284 72.7983C69.5786 72.0481 70 71.0307 70 69.9698C70 68.909 69.5786 67.8916 68.8284 67.1414C68.0783 66.3913 67.0609 65.9698 66 65.9698Z" fill="white"/>
</g>
<path fill-rule="evenodd" clip-rule="evenodd" d="M33.564 58.9698H58.436C59.328 58.9698 59.651 59.0628 59.976 59.2368C60.303 59.4108 60.559 59.6669 60.733 59.9929C60.907 60.3189 61 60.6428 61 61.5328V78.4059C61 79.2979 60.907 79.6209 60.733 79.9459C60.559 80.2729 60.303 80.5289 59.977 80.7029C59.651 80.8769 59.327 80.9698 58.437 80.9698H33.564C32.672 80.9698 32.349 80.8769 32.024 80.7029C31.7009 80.5334 31.4369 80.2697 31.267 79.9468C31.093 79.6208 31 79.2969 31 78.4069V61.5338C31 60.6418 31.093 60.3188 31.267 59.9938C31.441 59.6668 31.697 59.4108 32.023 59.2368C32.349 59.0628 32.674 58.9698 33.564 58.9698Z" stroke="white" stroke-width="1.7895" stroke-linecap="round" stroke-linejoin="round"/>
<path fill-rule="evenodd" clip-rule="evenodd" d="M4.564 39.9698H87.436C88.328 39.9698 88.651 40.0628 88.976 40.2368C89.303 40.4108 89.559 40.6669 89.733 40.9929C89.907 41.3189 90 41.6428 90 42.5328V89.4058C90 90.2978 89.907 90.6209 89.733 90.9459C89.559 91.2729 89.303 91.5288 88.977 91.7028C88.651 91.8768 88.327 91.9698 87.437 91.9698H4.564C3.672 91.9698 3.349 91.8768 3.024 91.7028C2.70088 91.5334 2.43688 91.2697 2.267 90.9468C2.093 90.6208 2 90.2969 2 89.4069V42.5338C2 41.6418 2.093 41.3188 2.267 40.9938C2.441 40.6668 2.697 40.4108 3.023 40.2368C3.349 40.0628 3.674 39.9698 4.564 39.9698Z" stroke="white" stroke-width="2.6842" stroke-linecap="round" stroke-linejoin="round"/>
<path d="M5.00003 50.9699H7.00003V45.4699H85V50.9699H87M16.5 73.4699L11.858 59.9699M6.90103 40.2769C5.79103 32.9829 -4.25897 10.3189 15.584 14.8799C22.5 16.4699 24.647 18.8619 29 16.9699C35.384 14.1959 39 -3.53011 49.5 2.96989C55.975 6.97789 51.5 17.4699 42.883 15.3659C37.334 14.0109 26.216 4.06889 16.5 7.46989C6.50003 10.9699 10.04 19.9219 15.5 22.4699C23 25.9699 24.98 22.9699 36.5 22.9699C47 22.9699 59 34.9699 57.5 22.4699C57.047 18.6969 55.662 15.7429 55.5 11.9699C55.299 7.29789 57.517 4.07389 58 3.46989C62 -1.53011 70.211 1.94289 70.806 6.10689C73 21.4699 41.552 -0.87111 41.149 15.1549C40.871 26.2249 81.194 18.1439 77.961 5.0049C76.269 -1.8701 59.847 5.91188 63.26 18.4249C66.621 30.7469 92.324 29.9529 90.5 15.9699C89 4.46989 77.96 9.44189 78.5 16.4699C79 22.9699 83.37 22.9509 85.086 30.4659C86 34.4699 81.851 39.0859 80.691 40.3869M23.436 58.9699C24.328 58.9699 24.651 59.0629 24.976 59.2369C25.303 59.4109 25.559 59.6669 25.733 59.9929C25.907 60.3189 26 60.6429 26 61.5329V78.4059C26 79.2979 25.907 79.6209 25.733 79.9459C25.559 80.2729 25.303 80.5289 24.977 80.7029C24.651 80.8769 24.327 80.9699 23.437 80.9699H11.803C10.2863 79.5673 9.0766 77.8659 8.24997 75.9727C7.42334 74.0795 6.99775 72.0357 7.00003 69.9699C6.9976 67.9037 7.4232 65.8594 8.25001 63.9659C9.07683 62.0723 10.2869 60.3706 11.804 58.9679L23.436 58.9699ZM68.564 58.9699C67.672 58.9699 67.349 59.0629 67.024 59.2369C66.697 59.4109 66.441 59.6669 66.267 59.9929C66.093 60.3189 66 60.6429 66 61.5329V78.4059C66 79.2979 66.093 79.6209 66.267 79.9459C66.441 80.2729 66.697 80.5289 67.023 80.7029C67.349 80.8769 67.673 80.9699 68.563 80.9699H80.197C81.7137 79.5673 82.9235 77.8659 83.7501 75.9727C84.5767 74.0795 85.0023 72.0357 85 69.9699C85.0025 67.9037 84.5769 65.8594 83.75 63.9659C82.9232 62.0723 81.7131 60.3706 80.196 58.9679L68.564 58.9699Z" stroke="white" stroke-width="1.7895" stroke-linecap="round" stroke-linejoin="round"/>
</svg>
